# File created by Blade
# Date/Time:  Tue Jan 27 19:23:26 2015
#---------------------------------------------------------
:version 1.10
:name HOM
:units
  mass 1.0
  length 1.000000
  angle deg
:documentation
     Acclaim Skeleton File
:root
   axis xyz
   order TX TY TZ RX RY RZ
   position 0.000000 0.000000 0.000000
   orientation 0 0 0
:bonedata
   begin
      id 1
      name Spine_dum
      direction 0.000000 1.000000 0.000000
      length 6.116652
      axis 0.0 0.0 0.0 xyz
   end
   begin
      id 2
      name LeftUpLeg_dum
      direction 1.000000 0.000000 0.000000
      length 4.711765
      axis 0.0 0.0 0.0 xyz
   end
   begin
      id 3
      name RightUpLeg_dum
      direction -1.000000 0.000000 0.000000
      length 4.711765
      axis 0.0 0.0 0.0 xyz
   end
   begin
      id 4
      name Spine
      direction 0.000000 1.000000 0.000000
      length 0.000000
      axis 0.0 0.0 0.0 xyz
      dof rx ry rz
   end
   begin
      id 5
      name Spine_dum1
      direction 0.000000 1.000000 0.000000
      length 15.225563
      axis 0.0 0.0 0.0 xyz
   end
   begin
      id 6
      name Spine_dum2
      direction 0.000000 1.000000 0.000000
      length 8.977654
      axis 0.0 0.0 0.0 xyz
   end
   begin
      id 7
      name Spine_dum3
      direction 0.000000 1.000000 0.000000
      length 8.977654
      axis 0.0 0.0 0.0 xyz
   end
   begin
      id 8
      name Head
      direction 0.000000 1.000000 0.000000
      length 4.527550
      axis 0.0 0.0 0.0 xyz
      dof rx ry rz
   end
   begin
      id 9
      name LeftShoulder
      direction 1.000000 0.000000 0.000000
      length 7.110130
      axis 0.0 0.0 -90.0 xyz
      dof rx ry rz
   end
   begin
      id 10
      name LeftArm
      direction 1.000000 0.000000 0.000000
      length 10.398341
      axis 0.0 0.0 -90.0 xyz
      dof rx ry rz
   end
   begin
      id 11
      name LeftForeArm
      direction 1.000000 0.000000 0.000000
      length 8.888997
      axis 0.0 0.0 -90.0 xyz
      dof ry rz rx
   end
   begin
      id 12
      name LeftHand
      direction 0.000000 0.000000 0.000000
      length 0.000000
      axis 0.0 0.0 -90.0 xyz
      dof rx ry rz
   end
   begin
      id 13
      name LeftHand_dum1
      direction 0.000000 0.000000 0.000000
      length 0.000000
      axis 0.0 0.0 -90.0 xyz
   end
   begin
      id 14
      name LeftHand_dum2
      direction 1.000000 0.000000 0.000000
      length 3.937000
      axis 0.0 0.0 -90.0 xyz
   end
   begin
      id 15
      name LeftHandThumb1
      direction 0.000000 0.000000 1.000000
      length 3.937000
      axis 0.0 0.0 -90.0 xyz
      dof rx rz ry
   end
   begin
      id 16
      name RightShoulder
      direction -1.000000 0.000000 0.000000
      length 7.110130
      axis 0.0 0.0 90.0 xyz
      dof rx ry rz
   end
   begin
      id 17
      name RightArm
      direction -1.000000 0.000000 0.000000
      length 10.398341
      axis 0.0 0.0 90.0 xyz
      dof rx ry rz
   end
   begin
      id 18
      name RightForeArm
      direction -1.000000 0.000000 0.000000
      length 8.888997
      axis 0.0 0.0 90.0 xyz
      dof ry rz rx
   end
   begin
      id 19
      name RightHand
      direction 0.000000 0.000000 0.000000
      length 0.000000
      axis 0.0 0.0 90.0 xyz
      dof rx ry rz
   end
   begin
      id 20
      name RightHand_dum1
      direction 0.000000 0.000000 0.000000
      length 0.000000
      axis 0.0 0.0 90.0 xyz
   end
   begin
      id 21
      name RightHand_dum2
      direction -1.000000 0.000000 0.000000
      length 3.937000
      axis 0.0 0.0 90.0 xyz
   end
   begin
      id 22
      name RightHandThumb1
      direction 0.000000 0.000000 1.000000
      length 3.937000
      axis 0.0 0.0 90.0 xyz
      dof rx rz ry
   end
   begin
      id 23
      name LeftUpLeg
      direction 0.000000 -1.000000 0.000000
      length 15.510451
      axis 0.0 0.0 0.0 xyz
      dof rx ry rz
   end
   begin
      id 24
      name LeftLeg
      direction 0.000000 -1.000000 0.000000
      length 14.858061
      axis 0.0 0.0 0.0 xyz
      dof rx ry rz
   end
   begin
      id 25
      name LeftFoot
      direction 0.000000 -0.258819 0.965926
      length 5.128852
      axis 15.0 0.0 0.0 xyz
      dof rx ry rz
   end
   begin
      id 26
      name LeftToeBase
      direction 0.000000 0.000000 1.000000
      length 2.952750
      axis 0.0 0.0 0.0 xyz
      dof rx ry rz
   end
   begin
      id 27
      name RightUpLeg
      direction 0.000000 -1.000000 0.000000
      length 15.510451
      axis 0.0 0.0 0.0 xyz
      dof rx ry rz
   end
   begin
      id 28
      name RightLeg
      direction 0.000000 -1.000000 0.000000
      length 14.858061
      axis 0.0 0.0 0.0 xyz
      dof rx ry rz
   end
   begin
      id 29
      name RightFoot
      direction 0.000000 -0.258819 0.965926
      length 5.128852
      axis 15.0 0.0 0.0 xyz
      dof rx ry rz
   end
   begin
      id 30
      name RightToeBase
      direction 0.000000 0.000000 1.000000
      length 2.952750
      axis 0.0 0.0 0.0 xyz
      dof rx ry rz
   end
:hierarchy
   begin
      root Spine_dum LeftUpLeg_dum RightUpLeg_dum
      Spine_dum Spine
      LeftUpLeg_dum LeftUpLeg
      RightUpLeg_dum RightUpLeg
      Spine Spine_dum1 Spine_dum2 Spine_dum3
      Spine_dum1 Head
      Spine_dum2 LeftShoulder
      Spine_dum3 RightShoulder
      LeftShoulder LeftArm
      LeftArm LeftForeArm
      LeftForeArm LeftHand
      LeftHand LeftHand_dum1 LeftHand_dum2
      LeftHand_dum1 LeftHandThumb1
      RightShoulder RightArm
      RightArm RightForeArm
      RightForeArm RightHand
      RightHand RightHand_dum1 RightHand_dum2
      RightHand_dum1 RightHandThumb1
      LeftUpLeg LeftLeg
      LeftLeg LeftFoot
      LeftFoot LeftToeBase
      RightUpLeg RightLeg
      RightLeg RightFoot
      RightFoot RightToeBase
   end

# File created by Blade
# Date/Time:  Tue Jan 27 19:23:16 2015
# Frame Rate: 120.000 fps
#------------------------------------------------------
:FULLY-SPECIFIED
:DEGREES
685
root 4.654727 32.310455 0.349143 -1.355329 25.152903 3.377272
Spine 0.449310 27.998889 -1.972865
Head -0.174841 -33.340295 -2.864898
LeftShoulder -3.582491 -9.356849 22.898198
LeftArm -3.265216 45.359973 -102.061849
LeftForeArm 4.115002 0.000000 13.339109
LeftHand 10.338308 -0.000000 -7.735129
LeftHandThumb1 -26.253704 0.000000 33.147579
RightShoulder 2.056452 22.391826 -42.582920
RightArm 52.918653 6.864564 123.173920
RightForeArm 33.961031 0.000000 113.617858
RightHand 25.877728 -0.000000 -8.917217
RightHandThumb1 -24.326973 -0.000000 -32.862282
LeftUpLeg 5.379150 -15.273333 -3.788551
LeftLeg 2.852262 -0.000000 -0.000000
LeftFoot -12.660010 7.630355 -21.197190
LeftToeBase 17.496410 -0.000000 -0.000000
RightUpLeg 13.328714 -22.398595 -3.059095
RightLeg -2.573109 -0.000000 0.000000
RightFoot -17.290259 -21.689896 19.554670
RightToeBase 9.893794 -0.000000 -0.000000
686
root 4.654198 32.311747 0.346193 -1.239443 25.240338 3.398587
Spine 0.449736 28.046143 -2.045957
Head -1.084217 -32.705777 -3.091318
LeftShoulder -3.597923 -9.409872 22.819588
LeftArm -3.208769 45.337690 -101.972115
LeftForeArm 4.129536 -0.000000 13.317611
LeftHand 10.305361 0.000000 -7.771480
LeftHandThumb1 -26.253704 0.000000 33.147579
RightShoulder 2.205408 22.011793 -42.225015
RightArm 53.227730 7.267650 123.276522
RightForeArm 33.995857 -0.000000 115.216040
RightHand 26.360458 -0.000000 -9.043400
RightHandThumb1 -24.326973 -0.000000 -32.862282
LeftUpLeg 5.262387 -15.325195 -3.773627
LeftLeg 2.837919 -0.000000 -0.000000
LeftFoot -12.553135 7.616671 -21.058272
LeftToeBase 17.326530 -0.000000 -0.000000
RightUpLeg 13.255458 -22.385218 -3.023005
RightLeg -2.640586 -0.000000 0.000000
RightFoot -17.295469 -21.768222 19.597440
RightToeBase 9.897912 -0.000000 -0.000000
687
root 4.653877 32.312240 0.343465 -1.122220 25.331317 3.419325
Spine 0.459390 28.072834 -2.115880
Head -2.034837 -32.056654 -3.322355
LeftShoulder -3.645672 -9.451980 22.730456
LeftArm -3.146934 45.310164 -101.878184
LeftForeArm 4.137703 -0.000000 13.290288
LeftHand 10.264588 -0.000000 -7.740226
LeftHandThumb1 -26.253704 0.000000 33.147579
RightShoulder 2.395092 21.909087 -42.029169
RightArm 53.287436 8.016489 123.547050
RightForeArm 33.727443 0.000000 116.987221
RightHand 26.650449 0.000000 -9.023085
RightHandThumb1 -24.326973 -0.000000 -32.862282
LeftUpLeg 5.144566 -15.383567 -3.758757
LeftLeg 2.817882 -0.000000 -0.000000
LeftFoot -12.506911 7.591208 -21.052617
LeftToeBase 17.327390 -0.000000 -0.000000
RightUpLeg 13.184685 -22.378593 -2.987125
RightLeg -2.713792 -0.000000 0.000000
RightFoot -17.308144 -21.847816 19.652957
RightToeBase 9.889380 -0.000000 -0.000000
688
root 4.653467 32.313223 0.341366 -1.002852 25.423127 3.438326
Spine 0.476738 28.079721 -2.183103
Head -3.018365 -31.401788 -3.595700
LeftShoulder -3.734792 -9.495360 22.626548
LeftArm -3.092449 45.275538 -101.769062
LeftForeArm 4.116583 -0.000000 13.265210
LeftHand 10.246675 0.000000 -7.722707
LeftHandThumb1 -26.253704 0.000000 33.147579
RightShoulder 2.536153 21.803135 -41.807182
RightArm 53.408274 8.706929 123.803647
RightForeArm 33.718439 -0.000000 118.836265
RightHand 26.578304 -0.000000 -9.109754
RightHandThumb1 -24.326973 -0.000000 -32.862282
LeftUpLeg 5.027181 -15.437366 -3.737657
LeftLeg 2.783177 -0.000000 -0.000000
LeftFoot -12.479359 7.566756 -21.139441
LeftToeBase 17.471947 -0.000000 -0.000000
RightUpLeg 13.110137 -22.343329 -2.939742
RightLeg -2.789901 -0.000000 0.000000
RightFoot -17.310062 -21.967175 19.682393
RightToeBase 9.919455 -0.000000 -0.000000
